<svg xmlns="http://www.w3.org/2000/svg" viewBox="0 0 1738 494">
<g transform="translate(0.000000,494.000000) scale(0.100000,-0.100000)" fill="#ffe600">
<path d="M3640 4014 c-200 -54 -375 -205 -507 -437 -236 -418 -267 -1025 -78
-1572 l45 -130 -28 -23 c-48 -40 -293 -156 -414 -197 -65 -22 -118 -45 -118
-51 0 -17 130 -388 139 -397 20 -20 383 131 565 236 l98 56 64 -57 c283 -254
659 -301 1009 -126 176 88 345 227 528 434 l66 75 1 -257 0 -258 220 0 220 0
0 639 c0 601 -1 640 -17 645 -10 3 -97 24 -193 46 -96 22 -183 43 -192 46 -13
4 -25 -10 -49 -58 -50 -99 -175 -303 -250 -410 -250 -352 -495 -547 -720 -574
-96 -11 -227 35 -307 107 l-34 30 74 77 c289 303 510 742 584 1162 26 145 24
377 -4 505 -58 259 -207 435 -417 490 -74 19 -212 18 -285 -1z m214 -448 c52
-54 71 -136 70 -296 -1 -257 -86 -532 -247 -803 -65 -109 -210 -297 -221 -286
-11 10 -58 210 -71 301 -30 198 -15 468 35 649 71 258 234 467 364 469 31 0
45 -6 70 -34z M7300 3235 c0 -294 -4 -535 -8 -535 -5 0 -41 11 -81 25 -343
120 -735 137 -1013 45 -210 -70 -384 -219 -473 -404 -111 -232 -97 -515 35
-737 81 -137 222 -263 371 -333 125 -59 184 -71 359 -70 185 0 259 17 415 93
124 61 206 123 313 235 l82 87 0 -165 0 -166 220 0 220 0 0 1230 0 1230 -220
0 -220 0 0 -535z m-460 -860 c96 -18 360 -103 360 -115 0 -23 -73 -176 -115
-240 -124 -193 -294 -313 -503 -357 -104 -21 -178 -13 -269 32 -140 69 -216
188 -217 340 -1 116 39 194 136 269 114 86 371 116 608 71z M12383 3525 c-171
-37 -296 -163 -332 -333 -16 -75 -14 -207 4 -275 36 -137 108 -225 233 -285
l77 -37 150 0 150 0 75 36 c163 78 249 224 250 425 0 196 -78 348 -220 423
-107 57 -255 75 -387 46z m239 -236 c72 -52 109 -213 74 -331 -60 -209 -302
-209 -362 -1 -35 120 1 280 75 332 60 43 152 43 213 0z M10210 3060 l0 -460
140 0 140 0 0 130 0 130 110 0 c179 0 288 50 355 164 73 124 36 340 -72 422
-89 68 -124 74 -413 74 l-260 0 0 -460z m440 242 c86 -43 90 -173 6 -227 -13
-9 -56 -19 -95 -22 l-71 -6 0 137 0 136 63 0 c39 0 75 -6 97 -18z M11120 3060
l0 -460 140 0 140 0 0 155 0 155 53 0 52 0 67 -152 67 -153 156 -3 157 -3 -93
178 c-68 131 -89 178 -78 181 8 3 35 26 60 52 55 56 79 119 79 206 0 148 -80
251 -225 289 -46 12 -117 15 -317 15 l-258 0 0 -460z m424 260 c79 -18 118
-99 81 -169 -22 -43 -68 -61 -155 -61 l-70 0 0 120 0 120 53 0 c28 0 70 -5 91
-10z M9125 3453 c-139 -47 -400 -117 -580 -154 -60 -12 -114 -25 -118 -29 -8
-7 49 -279 61 -292 14 -13 485 28 661 58 166 28 232 46 227 63 -3 9 -23 88
-46 176 -49 192 -59 225 -68 224 -4 0 -65 -21 -137 -46z M5223 3380 c-72 -15
-149 -75 -186 -145 -32 -59 -31 -183 1 -245 49 -93 117 -140 217 -148 120 -9
216 40 270 139 25 46 29 65 30 129 0 84 -21 138 -77 197 -57 59 -168 91 -255
73z M8745 2819 c-285 -28 -521 -156 -663 -362 -77 -111 -132 -289 -132 -428 0
-316 170 -583 455 -715 129 -60 248 -85 422 -91 370 -13 646 77 862 284 77 73
84 83 71 97 -8 8 -80 62 -159 120 l-144 105 -45 -40 c-26 -22 -79 -61 -120
-86 -255 -159 -585 -147 -745 26 l-42 46 75 8 c343 35 580 93 796 196 178 85
334 207 334 261 0 79 -73 236 -151 324 -128 143 -313 229 -554 256 -101 11
-132 11 -260 -1z m221 -360 c32 -6 83 -22 112 -36 56 -26 132 -91 132 -112 0
-7 -33 -27 -72 -46 -158 -72 -322 -114 -548 -140 -174 -21 -161 -24 -146 33
59 222 275 347 522 301z M11623 2378 l64 -83 100 -3 99 -3 34 43 c19 24 49 62
68 86 l34 42 -83 0 -84 0 -30 -45 c-16 -25 -33 -45 -36 -45 -3 0 -19 20 -37
45 l-32 45 -81 0 -81 0 65 -82z M12600 2238 c-140 -14 -259 -93 -296 -196 -19
-55 -17 -159 5 -207 41 -92 123 -141 281 -169 145 -26 198 -43 216 -71 20 -31
11 -61 -25 -79 -77 -40 -184 -26 -229 30 l-27 34 -128 0 -129 0 7 -42 c22
-142 119 -216 317 -241 210 -27 402 46 471 177 28 53 31 195 5 241 -45 83
-126 127 -284 156 -144 26 -182 37 -205 60 -39 39 -14 90 55 108 76 19 155 -8
177 -61 l11 -28 125 0 125 0 -7 47 c-26 175 -203 267 -465 241z M14335 2239
c-172 -17 -304 -114 -366 -269 -31 -78 -39 -271 -14 -356 35 -124 117 -225
221 -273 142 -67 347 -65 484 4 178 90 265 312 215 550 -20 94 -58 166 -120
224 -106 100 -237 137 -420 120z m151 -228 c79 -36 119 -116 119 -241 0 -105
-21 -165 -75 -214 -46 -42 -73 -50 -140 -44 -62 6 -110 42 -141 105 -21 41
-24 63 -24 153 0 88 4 111 22 145 55 104 144 139 239 96z M10210 1770 l0 -460
120 0 120 0 0 268 c0 161 4 261 10 252 4 -9 41 -94 80 -190 39 -96 85 -208
102 -248 l30 -73 77 3 76 3 105 256 105 257 3 -264 2 -264 120 0 120 0 0 460
0 460 -158 0 -159 0 -93 -237 c-51 -131 -100 -254 -108 -273 l-14 -35 -108
270 -108 270 -161 3 -161 2 0 -460z M11470 1770 l0 -460 335 0 335 0 0 105 0
105 -195 0 -195 0 0 75 0 75 180 0 180 0 0 95 0 95 -180 0 -180 0 0 80 0 80
195 0 195 0 0 105 0 105 -335 0 -335 0 0 -460z M13140 2125 l0 -104 123 -3
122 -3 3 -352 2 -353 135 0 135 0 2 353 3 352 123 3 122 3 0 104 0 105 -385 0
-385 0 0 -105z M2590 790 l0 -140 6140 0 6140 0 0 140 0 140 -6140 0 -6140 0
0 -140z"/>
</g>
</svg>
